<?xml version="1.0" encoding="UTF-8" standalone="no"?>
<!-- Created with Inkscape (http://www.inkscape.org/) -->

<svg
   width="210mm"
   height="297mm"
   viewBox="0 0 210 297"
   version="1.1"
   id="svg1"
   inkscape:version="1.3.2 (091e20e, 2023-11-25, custom)"
   sodipodi:docname="drawing.svg"
   xmlns:inkscape="http://www.inkscape.org/namespaces/inkscape"
   xmlns:sodipodi="http://sodipodi.sourceforge.net/DTD/sodipodi-0.dtd"
   xmlns="http://www.w3.org/2000/svg"
   xmlns:svg="http://www.w3.org/2000/svg">
  <sodipodi:namedview
     id="namedview1"
     pagecolor="#ffffff"
     bordercolor="#000000"
     borderopacity="0.25"
     inkscape:showpageshadow="2"
     inkscape:pageopacity="0.0"
     inkscape:pagecheckerboard="0"
     inkscape:deskcolor="#d1d1d1"
     inkscape:document-units="mm"
     showguides="false"
     inkscape:zoom="0.70710678"
     inkscape:cx="245.36605"
     inkscape:cy="430.62803"
     inkscape:window-width="1920"
     inkscape:window-height="991"
     inkscape:window-x="-9"
     inkscape:window-y="-9"
     inkscape:window-maximized="1"
     inkscape:current-layer="layer1" />
  <defs
     id="defs1">
    <rect
       x="423.55696"
       y="398.10112"
       width="122.32948"
       height="38.890873"
       id="rect158" />
  </defs>
  <g
     inkscape:label="Layer 1"
     inkscape:groupmode="layer"
     id="layer1">
    <path
       id="path1"
       style="opacity:1;fill:#00ff00;fill-opacity:1;stroke-width:0.475482;stroke-dasharray:none"
       d="m 108.74582,33.520081 c -8.66111,21.964337 -3.34987,55.14964 -32.664405,19.890199 -8.248535,25.086699 26.154625,32.778042 12.254261,68.94556 -4.892155,22.38462 -36.54992,-1.36602 -42.120572,-20.29914 -19.180883,30.91659 25.836658,22.74399 22.689911,74.34175 8.982572,-13.41719 24.513301,-22.27859 40.687245,-22.8752 3.47756,-0.11815 6.96812,0.0667 10.40383,0.62442 13.52265,2.03012 25.78685,9.97232 33.79571,20.97418 -8.5762,-52.56146 19.25048,-19.53634 16.68889,-71.97628 -17.795,27.72042 -31.45752,35.2614 -39.88488,23.58125 -18.31398,-30.489689 10.3775,-37.907239 14.19365,-71.870159 -10.9754,10.886377 -33.7569,23.18012 -36.04364,-21.33658 z m 3.06825,123.304049 -0.002,8.2e-4 c -21.458004,0 -39.663583,14.11306 -46.141378,33.6251 a 12.023523,18.100072 0 0 1 1.102743,-0.17221 h 8.16e-4 a 12.023523,18.100072 0 0 1 0.06775,0.0114 12.023523,18.100072 0 0 0 -0.06938,-0.008 12.023523,18.100072 0 0 0 -1.102745,0.17223 c 2.69e-4,-8.2e-4 5.42e-4,-0.002 8.17e-4,-0.003 a 12.023523,18.100072 0 0 0 -0.0049,8.3e-4 12.023523,18.100072 0 0 0 -9.079882,8.37219 6.7054266,10.094271 0 0 0 -6.229562,10.04715 6.7054266,10.094271 0 0 0 6.685841,10.09283 12.023523,18.100072 0 0 0 9.731244,7.51515 12.023523,18.100072 0 0 0 0.68891,-0.0408 c 3.6e-4,7.8e-4 4.69e-4,0.002 8.15e-4,0.003 a 12.023523,18.100072 0 0 0 5.340669,-2.41608 c -2.426115,-5.45318 -3.788175,-11.50441 -3.788175,-17.89122 0,-5.06458 0.858824,-9.91776 2.420159,-14.43116 a 12.023523,18.100072 0 0 0 -0.05959,-0.031 12.023523,18.100072 0 0 1 0.05795,0.0269 12.023523,18.100072 0 0 1 0.0033,8.1e-4 c 5.854668,-16.9208 21.711344,-29.00681 40.375448,-29.00681 18.52272,0 34.28767,11.90057 40.24892,28.61992 0.0866,0.2429 0.16491,0.4897 0.24733,0.73462 0.10946,0.32631 0.22269,0.65061 0.32486,0.9803 0.001,0.005 0.003,0.01 0.005,0.0131 1.28037,4.12907 1.97286,8.52631 1.97286,13.09253 0,6.67644 -1.48159,12.99064 -4.11957,18.63318 a 12.023523,18.100072 0 0 0 5.06967,1.71494 12.023523,18.100072 0 0 0 0.63178,-0.1151 c 0.34298,-0.76903 0.66721,-1.54865 0.97214,-2.33772 -0.30466,0.78825 -0.62788,1.56704 -0.97051,2.33527 a 12.023523,18.100072 0 0 0 9.09865,-7.40005 6.7054266,10.094271 0 0 0 6.68585,-10.09283 6.7054266,10.094271 0 0 0 -6.22793,-10.04715 12.023523,18.100072 0 0 0 -7.71268,-8.14038 c 1.58779,4.86345 2.46016,10.0535 2.46016,15.4474 0,1.96006 -0.11881,3.89237 -0.3412,5.79286 0.22187,-1.89965 0.33957,-3.83127 0.33957,-5.79042 0,-5.39389 -0.87235,-10.58392 -2.46016,-15.44739 a 12.023523,18.100072 0 0 0 -2.47567,-0.40485 12.023523,18.100072 0 0 0 -3.53758,0.90848 c -1.9e-4,-5.7e-4 -6.3e-4,-0.001 -8.2e-4,-0.002 a 12.023523,18.100072 0 0 1 3.54085,-0.90848 12.023523,18.100072 0 0 1 2.47322,0.40405 c -6.41128,-19.6322 -24.68048,-33.85774 -46.22382,-33.85774 z m 0.14448,9.47739 a 39.488149,39.488278 0 0 0 -39.488184,39.48819 39.488149,39.488278 0 0 0 39.488184,39.48818 39.488149,39.488278 0 0 0 39.48819,-39.48818 39.488149,39.488278 0 0 0 -39.48819,-39.48819 z m -16.830934,9.82511 4.11142,9.81287 c -1.31716,0.80052 -2.56283,1.71603 -3.69349,2.76952 -0.32647,0.31071 -0.64555,0.63017 -0.96236,0.95092 l -9.15335,-5.5529 c 0.96269,-1.16491 2.00489,-2.26559 3.12296,-3.28946 1.98049,-1.82714 4.19874,-3.39672 6.57482,-4.69095 z m 16.304454,10.70176 a 19.65632,18.613417 0 0 1 19.65594,18.61359 19.65632,18.613417 0 0 1 -19.65594,18.61361 19.65632,18.613417 0 0 1 -19.656754,-18.61361 19.65632,18.613417 0 0 1 19.656754,-18.61359 z m 0.99826,16.84561 a 2.0880966,2.0141819 2.8221658 0 0 -2.18426,1.90921 2.0880966,2.0141819 2.8221658 0 0 1.98592,2.11487 2.0880966,2.0141819 2.8221658 0 0 2.18509,-1.90919 2.0880966,2.0141819 2.8221658 0 0 -1.98675,-2.11489 z m 4.42813,1.1354 -0.12735,3.18743 a 39.179644,39.527909 0 0 0 0.12735,-3.18743 z m -46.517674,0.70034 c -5.29e-4,0.0327 -0.0024,0.0652 -0.0024,0.0979 0,0.0415 0.0026,0.082 0.0033,0.12325 -3.76e-4,-0.0419 -0.0016,-0.0837 -0.0016,-0.1257 0,-0.0321 6.16e-4,-0.0635 8.16e-4,-0.0955 z m 1.664318,12.14079 c 0.567521,2.0141 1.273521,3.96592 2.107542,5.84756 a 11.979197,18.100072 0 0 0 0.0024,-0.002 c -0.833737,-1.88087 -1.540796,-3.83346 -2.109991,-5.84592 z m 58.220956,3.21192 9.71737,5.89408 c -2.65803,3.53284 -5.99778,6.55721 -9.79737,8.83909 l -4.38729,-10.46913 c 1.65087,-1.24344 3.15692,-2.67335 4.46729,-4.26404 z" />
    <path
       style="color:#000000;opacity:0.55;fill:#000000;-inkscape-stroke:none"
       d="m 117.15306,196.80918 c 0.0243,0.0554 0.0451,0.11271 0.0698,0.16794 a 7.5840465,11.459181 0 0 0 0.004,-5.1e-4 c -0.0248,-0.0556 -0.0489,-0.11164 -0.0734,-0.16743 z"
       id="path157" />
    <path
       style="color:#000000;opacity:0.55;fill:#000000;-inkscape-stroke:none"
       d="m 116.68073,195.67384 c 0.15032,0.38227 0.30774,0.76063 0.47233,1.13534 -0.16465,-0.37462 -0.3218,-0.75319 -0.47233,-1.13534 z"
       id="path156" />
    <path
       style="color:#000000;opacity:0.55;fill:#000000;-inkscape-stroke:none"
       d="m 116.56136,195.3705 c 0.0388,0.10165 0.0795,0.20221 0.11937,0.30334 -0.0398,-0.10113 -0.0806,-0.20169 -0.11937,-0.30334 z"
       id="path155" />
    <path
       style="color:#000000;opacity:0.55;fill:#000000;-inkscape-stroke:none"
       d="m 116.05752,193.96077 c 0.15576,0.47565 0.32646,0.94447 0.50384,1.40973 -0.17768,-0.46513 -0.3477,-0.93433 -0.50384,-1.40973 z"
       id="path154" />
    <path
       d="m 24.38008,264.58678 a 7.5840465,11.459181 0 0 1 -1.549776,0.41393 7.5840465,11.459181 0 0 0 1.170988,-0.24185 7.5840465,11.459181 0 0 0 0.378788,-0.17208 z"
       style="opacity:0.55;fill:#00ff00"
       id="path37" />
    <path
       d="m 26.19909,263.47109 a 7.5840465,11.459181 0 0 1 -1.444356,0.94568 7.5840465,11.459181 0 0 0 0.378788,-0.17209 7.5840465,11.459181 0 0 0 1.065568,-0.77359 z"
       style="opacity:0.55;fill:#00ff00"
       id="path36" />
    <text
       xml:space="preserve"
       transform="matrix(0.26458333,0,0,0.32432713,66.603566,154.8949)"
       id="text158"
       style="font-size:18.6667px;white-space:pre;shape-inside:url(#rect158);opacity:1;fill:#280b0b;fill-opacity:1;stroke:#00ff00;stroke-width:0;stroke-dasharray:none"><tspan
         x="423.55664"
         y="415.13176"
         id="tspan2"><tspan
           style="font-family:ScriptS;-inkscape-font-specification:ScriptS"
           id="tspan1">Filip Hałys</tspan></tspan></text>
  </g>
</svg>
